<svg xmlns="http://www.w3.org/2000/svg" viewBox="0 0 1440 600">

  <!-- 3. Japanese-style background grid -->
  <g opacity="0.4">
    <!-- Horizontal lines every 40px -->
    <line x1="0" y1="40"  x2="1440" y2="40"  stroke="#112240" stroke-width="0.5"/>
    <line x1="0" y1="80"  x2="1440" y2="80"  stroke="#112240" stroke-width="0.5"/>
    <line x1="0" y1="120" x2="1440" y2="120" stroke="#112240" stroke-width="0.5"/>
    <line x1="0" y1="160" x2="1440" y2="160" stroke="#112240" stroke-width="0.5"/>
    <line x1="0" y1="200" x2="1440" y2="200" stroke="#112240" stroke-width="0.5"/>
    <line x1="0" y1="240" x2="1440" y2="240" stroke="#112240" stroke-width="0.5"/>
    <line x1="0" y1="280" x2="1440" y2="280" stroke="#112240" stroke-width="0.5"/>
    <line x1="0" y1="320" x2="1440" y2="320" stroke="#112240" stroke-width="0.5"/>
    <line x1="0" y1="360" x2="1440" y2="360" stroke="#112240" stroke-width="0.5"/>
    <line x1="0" y1="400" x2="1440" y2="400" stroke="#112240" stroke-width="0.5"/>
    <line x1="0" y1="440" x2="1440" y2="440" stroke="#112240" stroke-width="0.5"/>
    <line x1="0" y1="480" x2="1440" y2="480" stroke="#112240" stroke-width="0.5"/>
    <line x1="0" y1="520" x2="1440" y2="520" stroke="#112240" stroke-width="0.5"/>
    <line x1="0" y1="560" x2="1440" y2="560" stroke="#112240" stroke-width="0.5"/>
    <!-- Vertical lines every 40px -->
    <line x1="40"   y1="0" x2="40"   y2="600" stroke="#112240" stroke-width="0.5"/>
    <line x1="80"   y1="0" x2="80"   y2="600" stroke="#112240" stroke-width="0.5"/>
    <line x1="120"  y1="0" x2="120"  y2="600" stroke="#112240" stroke-width="0.5"/>
    <line x1="160"  y1="0" x2="160"  y2="600" stroke="#112240" stroke-width="0.5"/>
    <line x1="200"  y1="0" x2="200"  y2="600" stroke="#112240" stroke-width="0.5"/>
    <line x1="240"  y1="0" x2="240"  y2="600" stroke="#112240" stroke-width="0.5"/>
    <line x1="280"  y1="0" x2="280"  y2="600" stroke="#112240" stroke-width="0.5"/>
    <line x1="320"  y1="0" x2="320"  y2="600" stroke="#112240" stroke-width="0.5"/>
    <line x1="360"  y1="0" x2="360"  y2="600" stroke="#112240" stroke-width="0.5"/>
    <line x1="400"  y1="0" x2="400"  y2="600" stroke="#112240" stroke-width="0.5"/>
    <line x1="440"  y1="0" x2="440"  y2="600" stroke="#112240" stroke-width="0.5"/>
    <line x1="480"  y1="0" x2="480"  y2="600" stroke="#112240" stroke-width="0.5"/>
    <line x1="520"  y1="0" x2="520"  y2="600" stroke="#112240" stroke-width="0.5"/>
    <line x1="560"  y1="0" x2="560"  y2="600" stroke="#112240" stroke-width="0.5"/>
    <line x1="600"  y1="0" x2="600"  y2="600" stroke="#112240" stroke-width="0.5"/>
    <line x1="640"  y1="0" x2="640"  y2="600" stroke="#112240" stroke-width="0.5"/>
    <line x1="680"  y1="0" x2="680"  y2="600" stroke="#112240" stroke-width="0.5"/>
    <line x1="720"  y1="0" x2="720"  y2="600" stroke="#112240" stroke-width="0.5"/>
    <line x1="760"  y1="0" x2="760"  y2="600" stroke="#112240" stroke-width="0.5"/>
    <line x1="800"  y1="0" x2="800"  y2="600" stroke="#112240" stroke-width="0.5"/>
    <line x1="840"  y1="0" x2="840"  y2="600" stroke="#112240" stroke-width="0.5"/>
    <line x1="880"  y1="0" x2="880"  y2="600" stroke="#112240" stroke-width="0.5"/>
    <line x1="920"  y1="0" x2="920"  y2="600" stroke="#112240" stroke-width="0.5"/>
    <line x1="960"  y1="0" x2="960"  y2="600" stroke="#112240" stroke-width="0.5"/>
    <line x1="1000" y1="0" x2="1000" y2="600" stroke="#112240" stroke-width="0.5"/>
    <line x1="1040" y1="0" x2="1040" y2="600" stroke="#112240" stroke-width="0.5"/>
    <line x1="1080" y1="0" x2="1080" y2="600" stroke="#112240" stroke-width="0.5"/>
    <line x1="1120" y1="0" x2="1120" y2="600" stroke="#112240" stroke-width="0.5"/>
    <line x1="1160" y1="0" x2="1160" y2="600" stroke="#112240" stroke-width="0.5"/>
    <line x1="1200" y1="0" x2="1200" y2="600" stroke="#112240" stroke-width="0.5"/>
    <line x1="1240" y1="0" x2="1240" y2="600" stroke="#112240" stroke-width="0.5"/>
    <line x1="1280" y1="0" x2="1280" y2="600" stroke="#112240" stroke-width="0.5"/>
    <line x1="1320" y1="0" x2="1320" y2="600" stroke="#112240" stroke-width="0.5"/>
    <line x1="1360" y1="0" x2="1360" y2="600" stroke="#112240" stroke-width="0.5"/>
    <line x1="1400" y1="0" x2="1400" y2="600" stroke="#112240" stroke-width="0.5"/>
  </g>

  <!-- 5. Subtle concentric arcs centered around shoe last (center ~1000, 320) -->
  <g opacity="0.3">
    <path d="M 700 320 A 300 300 0 0 1 1300 320" fill="none" stroke="#1A2F4E" stroke-width="0.5"/>
    <path d="M 720 320 A 280 280 0 0 1 1280 320" fill="none" stroke="#1A2F4E" stroke-width="0.5"/>
    <path d="M 740 320 A 260 260 0 0 1 1260 320" fill="none" stroke="#1A2F4E" stroke-width="0.5"/>
    <path d="M 760 320 A 240 240 0 0 1 1240 320" fill="none" stroke="#1A2F4E" stroke-width="0.5"/>
    <path d="M 780 320 A 220 220 0 0 1 1220 320" fill="none" stroke="#1A2F4E" stroke-width="0.5"/>
    <path d="M 800 320 A 200 200 0 0 1 1200 320" fill="none" stroke="#1A2F4E" stroke-width="0.5"/>
    <path d="M 820 320 A 180 180 0 0 1 1180 320" fill="none" stroke="#1A2F4E" stroke-width="0.5"/>
    <path d="M 840 320 A 160 160 0 0 1 1160 320" fill="none" stroke="#1A2F4E" stroke-width="0.5"/>
  </g>

  <!-- 2. Geometric stitch lines radiating from shoe last -->
  <g opacity="0.6" stroke="#1A2F4E" stroke-width="0.8">
    <line x1="1000" y1="160" x2="1000" y2="100"/>
    <line x1="1000" y1="160" x2="1050" y2="105"/>
    <line x1="1000" y1="160" x2="1090" y2="120"/>
    <line x1="1000" y1="160" x2="1120" y2="145"/>
    <line x1="1000" y1="160" x2="1130" y2="175"/>
    <line x1="1000" y1="160" x2="960"  y2="105"/>
    <line x1="1000" y1="160" x2="920"  y2="120"/>
    <line x1="1000" y1="160" x2="890"  y2="145"/>
    <line x1="1000" y1="160" x2="880"  y2="175"/>
    <!-- Lower stitch lines -->
    <line x1="1000" y1="420" x2="1000" y2="490"/>
    <line x1="1000" y1="420" x2="1050" y2="480"/>
    <line x1="1000" y1="420" x2="1090" y2="460"/>
    <line x1="1000" y1="420" x2="960"  y2="480"/>
    <line x1="1000" y1="420" x2="920"  y2="460"/>
  </g>

  <!-- 1. Abstract shoe last outline — architectural side profile -->
  <g fill="none" stroke="#1E3A5F" stroke-width="1.5">
    <!-- Main shoe last body — side profile -->
    <!-- Toe area left, heel area right -->
    <path d="
      M 840 370
      C 840 370 850 340 870 320
      C 890 300 920 290 960 285
      C 990 282 1020 284 1050 290
      C 1080 296 1110 308 1130 325
      C 1150 342 1155 360 1150 378
      C 1145 396 1130 408 1110 414
      C 1090 420 1060 422 1030 420
      L 880 415
      C 860 413 845 395 840 370 Z
    "/>
    <!-- Toe cap line -->
    <path d="M 840 370 C 838 355 845 340 860 332"/>
    <!-- Waist line -->
    <path d="M 940 286 C 940 260 960 245 985 242 C 1010 239 1030 248 1035 268"/>
    <!-- Heel counter -->
    <path d="M 1130 325 C 1145 310 1155 295 1150 278 C 1145 261 1130 255 1115 258"/>
    <!-- Insole line -->
    <path d="M 845 412 C 900 425 980 430 1060 428 C 1100 427 1130 422 1148 415" stroke-dasharray="4 3"/>
    <!-- Featherline -->
    <path d="M 850 378 C 920 368 1010 365 1100 372" opacity="0.5"/>
  </g>

  <!-- 4. Gold accent diamonds at key intersection points -->
  <g fill="#C9A84C" opacity="0.6">
    <!-- Diamond = rotated square -->
    <rect x="994" y="154" width="12" height="12" transform="rotate(45 1000 160)"/>
    <rect x="1124" y="174" width="8"  height="8"  transform="rotate(45 1128 178)"/>
    <rect x="868"  y="174" width="8"  height="8"  transform="rotate(45 872 178)"/>
    <rect x="994" y="414" width="12" height="12" transform="rotate(45 1000 420)"/>
    <rect x="836"  y="364" width="8"  height="8"  transform="rotate(45 840 368)"/>
  </g>

</svg>
